<svg width="16" height="16" viewBox="0 0 16 16" xmlns="http://www.w3.org/2000/svg">
  <path fill-rule="evenodd" clip-rule="evenodd" d="M1.5 2H14.5C14.7761 2 15 2.22386 15 2.5V12.5C15 12.7761 14.7761 13 14.5 13H1.5C1.22386 13 1 12.7761 1 12.5V2.5C1 2.22386 1.22386 2 1.5 2ZM0 2.5C0 1.67157 0.671573 1 1.5 1H14.5C15.3284 1 16 1.67157 16 2.5V12.5C16 13.3284 15.3284 14 14.5 14H1.5C0.671573 14 0 13.3284 0 12.5V2.5ZM3.5 4H4.5V5H3.5V4ZM5.5 4H6.5V5H5.5V4ZM7.5 4H8.5V5H7.5V4ZM4.35355 8.85355L6.35355 6.85355C6.54882 6.65829 6.54882 6.34171 6.35355 6.14645L4.35355 4.14645C4.15829 3.95118 3.84171 3.95118 3.64645 4.14645C3.45118 4.34171 3.45118 4.65829 3.64645 4.85355L5.29289 6.5L3.64645 8.14645C3.45118 8.34171 3.45118 8.65829 3.64645 8.85355C3.84171 9.04882 4.15829 9.04882 4.35355 8.85355ZM11 8H8C7.72386 8 7.5 8.22386 7.5 8.5C7.5 8.77614 7.72386 9 8 9H11C11.2761 9 11.5 8.77614 11.5 8.5C11.5 8.22386 11.2761 8 11 8Z" fill="currentColor"/>
</svg>
